<svg xmlns="http://www.w3.org/2000/svg"  viewBox="0 0 80 80" width="80px" height="80px"><path fill="#b0c1d4" d="M22,75.5c-1.9,0-3.5-1.6-3.5-3.5V8c0-1.9,1.6-3.5,3.5-3.5h36c1.9,0,3.5,1.6,3.5,3.5v64 c0,1.9-1.6,3.5-3.5,3.5H22z"/><path fill="#66798f" d="M58,5c1.7,0,3,1.3,3,3v64c0,1.7-1.3,3-3,3H22c-1.7,0-3-1.3-3-3V8c0-1.7,1.3-3,3-3H58 M58,4H22 c-2.2,0-4,1.8-4,4v64c0,2.2,1.8,4,4,4h36c2.2,0,4-1.8,4-4V8C62,5.8,60.2,4,58,4L58,4z"/><path fill="#f2faff" d="M18.5 10.5H61.5V68.5H18.5z"/><path fill="#66798f" d="M61 11v57H19V11H61M62 10H18v59h44V10L62 10zM35 71H45V73H35z"/><path fill="#22c55e" d="M43 30.5c-.1 0-.2 0-.2-.1-.2-.1-.3-.4-.2-.7l2-4c.1-.2.4-.3.7-.2.2.1.3.4.2.7l-2 4C43.4 30.4 43.2 30.5 43 30.5zM37 30.5c-.2 0-.4-.1-.4-.3l-2-4c-.1-.2 0-.5.2-.7.2-.1.5 0 .7.2l2 4c.1.2 0 .5-.2.7C37.2 30.5 37.1 30.5 37 30.5z"/><path fill="#86efac" d="M32.5,48.5V35c0-4.1,3.4-7.5,7.5-7.5s7.5,3.4,7.5,7.5v13.5H32.5z"/><path fill="#22c55e" d="M40,28c3.9,0,7,3.1,7,7v13H33V35C33,31.1,36.1,28,40,28 M40,27L40,27c-4.4,0-8,3.6-8,8v14h16V35 C48,30.6,44.4,27,40,27L40,27z"/><path fill="#22c55e" d="M47 35H33c-.3 0-.5-.2-.5-.5S32.7 34 33 34h14c.3 0 .5.2.5.5S47.3 35 47 35zM43 30A1 1 0 1 0 43 32 1 1 0 1 0 43 30zM37 30A1 1 0 1 0 37 32 1 1 0 1 0 37 30z"/><path fill="#86efac" d="M43.5,53.5c-0.6,0-1-0.4-1-1v-4h2v4C44.5,53.1,44.1,53.5,43.5,53.5z"/><path fill="#22c55e" d="M44,49v3.5c0,0.3-0.2,0.5-0.5,0.5S43,52.8,43,52.5V49H44 M45,48h-3v4.5c0,0.8,0.7,1.5,1.5,1.5 s1.5-0.7,1.5-1.5V48L45,48z"/><g><path fill="#86efac" d="M50.5,44.5c-0.6,0-1-0.4-1-1v-8c0-0.6,0.4-1,1-1s1,0.4,1,1v8C51.5,44.1,51.1,44.5,50.5,44.5z"/><path fill="#22c55e" d="M50.5,35c0.3,0,0.5,0.2,0.5,0.5v8c0,0.3-0.2,0.5-0.5,0.5S50,43.8,50,43.5v-8 C50,35.2,50.2,35,50.5,35 M50.5,34c-0.8,0-1.5,0.7-1.5,1.5v8c0,0.8,0.7,1.5,1.5,1.5s1.5-0.7,1.5-1.5v-8C52,34.7,51.3,34,50.5,34 L50.5,34z"/></g><g><path fill="#86efac" d="M29.5,44.5c-0.6,0-1-0.4-1-1v-8c0-0.6,0.4-1,1-1s1,0.4,1,1v8C30.5,44.1,30.1,44.5,29.5,44.5z"/><path fill="#22c55e" d="M29.5,35c0.3,0,0.5,0.2,0.5,0.5v8c0,0.3-0.2,0.5-0.5,0.5S29,43.8,29,43.5v-8 C29,35.2,29.2,35,29.5,35 M29.5,34c-0.8,0-1.5,0.7-1.5,1.5v8c0,0.8,0.7,1.5,1.5,1.5s1.5-0.7,1.5-1.5v-8C31,34.7,30.3,34,29.5,34 L29.5,34z"/></g><g><path fill="#86efac" d="M36.5,53.5c-0.6,0-1-0.4-1-1v-4h2v4C37.5,53.1,37.1,53.5,36.5,53.5z"/><path fill="#22c55e" d="M37,49v3.5c0,0.3-0.2,0.5-0.5,0.5S36,52.8,36,52.5V49H37 M38,48h-3v4.5c0,0.8,0.7,1.5,1.5,1.5 s1.5-0.7,1.5-1.5V48L38,48z"/></g></svg>